<svg  xmlns="http://www.w3.org/2000/svg" width="218.291" height="39" viewBox="0 0 218.291 39">
    <g transform="translate(109.546 6.824)">
      <path d="M939.258,664.88a13.271,13.271,0,0,0-5.441-1.535c-1.545,0-2.535.554-2.535,1.411,0,2.585,8.754,1.858,8.754,7.838,0,3.3-2.761,5.214-6.6,5.214a11.593,11.593,0,0,1-6.2-1.663v-3.7c2.462,1.634,3.969,2.212,5.868,2.212,1.647,0,2.535-.577,2.535-1.584,0-2.815-8.753-1.784-8.753-7.942,0-2.97,2.561-4.936,6.549-4.936a14.03,14.03,0,0,1,5.82,1.335v3.349" transform="translate(-926.889 -660.196)" fill="#fff"></path>
      <path d="M1036.826,710.774a11.276,11.276,0,0,1-3.924.783c-4.077,0-6.713-2.379-6.713-6,0-3.553,2.738-6.064,6.561-6.064a12.093,12.093,0,0,1,3.9.754v2.72a6.643,6.643,0,0,0-2.968-.787,3.389,3.389,0,1,0-.126,6.77,8.942,8.942,0,0,0,3.272-.806v2.629" transform="translate(-1012.201 -693.947)" fill="#fff"></path>
      <path d="M1303.806,704.248a2.469,2.469,0,0,1,2.518-2.548,2.5,2.5,0,0,1,2.515,2.548Zm2.267-4.727a5.875,5.875,0,0,0-6.124,6.094c0,3.589,2.648,5.965,6.729,5.965a8.334,8.334,0,0,0,5.174-1.545v-2.271a6.828,6.828,0,0,1-4.292,1.637c-2.3,0-3.705-1.192-3.833-3.227h8.33c.173-4.247-2.61-6.653-5.985-6.653" transform="translate(-1247.396 -693.97)" fill="#fff"></path>
      <path d="M1395.907,712.674h3.642V701.041h-3.642Z" transform="translate(-1329.836 -695.276)" fill="#fff"></path>
      <path d="M1440.982,675.72a3.054,3.054,0,0,1-2.167.959c-1.715,0-2.8-1.414-2.8-3.534,0-2.322,1.085-3.661,2.921-3.661a3.952,3.952,0,0,1,2.046.683Zm0-14v6.061a6.786,6.786,0,0,0-3.025-.728c-3.322,0-5.62,2.46-5.62,6.02,0,3.483,2.3,6.045,5.415,6.045a4.781,4.781,0,0,0,3.23-1.154v.936h3.641v-17.18h-3.641" transform="translate(-1361.134 -661.502)" fill="#fff"></path>
      <path d="M1534.322,704.248a2.467,2.467,0,0,1,2.513-2.548,2.506,2.506,0,0,1,2.527,2.548Zm2.265-4.727a5.871,5.871,0,0,0-6.119,6.094c0,3.589,2.648,5.965,6.725,5.965a8.364,8.364,0,0,0,5.182-1.545v-2.271a6.846,6.846,0,0,1-4.3,1.637c-2.287,0-3.7-1.192-3.826-3.227h8.326c.173-4.247-2.612-6.653-5.985-6.653" transform="translate(-1445.441 -693.97)" fill="#fff"></path>
      <path d="M1632.856,703h.053c1.081-2.421,2.291-3.556,3.7-3.556a3.956,3.956,0,0,1,2.412,1.061l-1,3.225a4.207,4.207,0,0,0-2.162-.857c-1.336,0-2.191,1.262-3,3.4v5.018h-3.647v-11.63h3.647V703" transform="translate(-1530.273 -693.902)" fill="#fff"></path>
      <path d="M1398.139,661.252a2.569,2.569,0,0,1-1.371,2.813c-1.1.648-2.265.442-2.6-.461a2.553,2.553,0,0,1,1.367-2.812c1.1-.652,2.263-.445,2.608.461" transform="translate(-1328.255 -660.381)" fill="#fff"></path>
      <path d="M1123.989,671.5a4.073,4.073,0,0,0-4.249-4.443,4.472,4.472,0,0,0-3.669,1.945h-.05v-7.281h-3.646v17.149h3.646V671.5c.853-1.236,1.581-1.765,2.435-1.765,1.134,0,1.887.808,1.887,2.546v4.087a10.914,10.914,0,0,1,3.645-1.16V671.5" transform="translate(-1086.245 -661.502)" fill="#fff"></path>
      <path d="M1214.455,699.495a4.689,4.689,0,0,0-3.779,1.883v-1.665h-3.644v7.905a5.744,5.744,0,0,1,3.644,1.665V703.85c.958-1.441,1.638-1.921,2.544-1.921,1.032,0,1.817.683,1.817,2.323v7.063h3.645v-7.365c0-3.426-2.415-4.456-4.227-4.456" transform="translate(-1167.568 -693.948)" fill="#fff"></path>
      <path id="path81" d="M1269.534,799.051H1265.3v3.015h4.086v1.294H1265.3v3.111h4.362v1.292h-5.782v-10h5.655v1.291" transform="translate(-1216.407 -778.343)" fill="#fff"></path>
      <path d="M1328.577,807.751h1.3V797.74h-1.3Z" transform="translate(-1271.991 -778.326)" fill="#fff"></path>
      <path d="M1364.508,822.132a1.51,1.51,0,0,1,1.532,1.632h-3.3a1.713,1.713,0,0,1,1.771-1.632Zm-1.795,2.5h4.621c0-2.441-1.113-3.619-2.856-3.619a3.05,3.05,0,0,0-3.064,3.338,3.243,3.243,0,0,0,3.177,3.512,4.294,4.294,0,0,0,2.629-.778V825.82a4.182,4.182,0,0,1-2.3.8,2.062,2.062,0,0,1-2.205-1.984" transform="translate(-1300.203 -798.314)" fill="#fff"></path>
      <path d="M1432.229,822.871a2.986,2.986,0,0,0-1.812-.662,2.221,2.221,0,0,0,.217,4.431,4.147,4.147,0,0,0,1.74-.438v1.282a5.31,5.31,0,0,1-1.957.378,3.163,3.163,0,0,1-3.328-3.288c0-2.183,1.246-3.562,3.239-3.562a4.3,4.3,0,0,1,1.9.454v1.4" transform="translate(-1356.625 -798.314)" fill="#fff"></path>
      <path d="M1490.671,813.612h2.082v1.172h-2.082v3.385a.913.913,0,0,0,.938,1,2.818,2.818,0,0,0,1.479-.49V819.9a3.862,3.862,0,0,1-1.583.438,1.939,1.939,0,0,1-2.127-2.069v-3.483h-1.144v-.145l2.437-2.389v1.363" transform="translate(-1409.157 -790.787)" fill="#fff"></path>
      <path d="M1547.626,821.139v1.527h.027c.661-1.168,1.29-1.653,1.9-1.653a2.283,2.283,0,0,1,1.567.764l-.687,1.146a2.124,2.124,0,0,0-1.214-.661,1.847,1.847,0,0,0-1.594,2.037v3.441h-1.3v-6.6h1.3" transform="translate(-1459.069 -798.314)" fill="#fff"></path>
      <path d="M1643.3,822.871a3,3,0,0,0-1.819-.662,2.221,2.221,0,0,0,.219,4.431,4.2,4.2,0,0,0,1.747-.438v1.282a5.406,5.406,0,0,1-1.966.378,3.167,3.167,0,0,1-3.331-3.288c0-2.183,1.251-3.562,3.245-3.562a4.332,4.332,0,0,1,1.9.454v1.4" transform="translate(-1537.955 -798.314)" fill="#fff"></path>
      <path d="M1604.754,828.508h1.3v-6.6h-1.3Z" transform="translate(-1509.262 -799.082)" fill="#fff"></path>
      <path d="M1605.462,803.287a.9.9,0,0,1-.485,1c-.393.23-.809.156-.927-.163a.912.912,0,0,1,.491-1c.389-.233.8-.159.921.163" transform="translate(-1508.63 -782.832)" fill="#fff"></path>
      <path d="M1128.449,775.78a.474.474,0,0,0-.419.142.284.284,0,0,0-.065.164l-1.163,4.421c-.273,1.55-2.173,3.1-4.651,3.1h-3.444l.6-2.271h2.213a.7.7,0,0,0,.55-.249.529.529,0,0,0,.135-.268l.918-3.862a4.327,4.327,0,0,1,4.383-3.265h3.527l-.451,2.089Zm.795,2.694.394-1.43h3.583a5.588,5.588,0,0,0-1.162-5.253c-2.542-2.547-7.86-1.682-11.822,2.117a13.778,13.778,0,0,0-1.617,1.879h2.157l-.5,1.433H1117.7a11.812,11.812,0,0,0-.654,1.355h3.057l-.489,1.433h-3c-.514,2.189-.186,4.232,1.106,5.528,2.51,2.515,7.813,1.631,11.772-2.167a14.078,14.078,0,0,0,1.783-2.106H1128.5l.422-1.43h3.24a12.32,12.32,0,0,0,.627-1.359h-3.542" transform="translate(-1089.682 -754.791)" fill="#fff"></path>
    </g>
    <g transform="translate(0 6.968)">
      <path d="M303.4,709.482a.741.741,0,0,1-.69.794l-8.427.014c.078,2,.922,3.679,2.412,4.268a6.443,6.443,0,0,0,1.7.219,3.593,3.593,0,0,0,3.091-1.808c.413-1.033.7-1.075,1.263-.961.214.109.37.186.389.495a3.323,3.323,0,0,1-.893,1.8,4.954,4.954,0,0,1-3.951,1.561,5.154,5.154,0,0,1-3.97-1.361,7.027,7.027,0,0,1-.285-8.412,5.009,5.009,0,0,1,4.089-1.774,4.928,4.928,0,0,1,3.938,1.561A4.981,4.981,0,0,1,303.4,709.482Zm-1.52-.3a4.216,4.216,0,0,0-.988-2.679,3.819,3.819,0,0,0-2.721-1.066,3.627,3.627,0,0,0-2.612,1.052,5.021,5.021,0,0,0-1.268,2.7Z" transform="translate(-272.554 -698.231)" fill="#fff"></path>
      <ellipse id="Elipse_3" data-name="Elipse 3" cx="0.914" cy="0.915" rx="0.914" ry="0.915" transform="translate(11.407 2.307)" fill="#fff"></ellipse>
      <rect width="1.51" height="11.562" rx="0.755" transform="translate(11.565 6.098)" fill="#fff"></rect>
      <rect width="1.51" height="15.759" rx="0.755" transform="translate(37.323 1.901)" fill="#fff"></rect>
      <path d="M159.085,688.707h-8.239V675.389a.71.71,0,0,0-.707-.709h-.178a.71.71,0,0,0-.707.709v14.085a.7.7,0,0,0,.025.175.707.707,0,0,0,.69.566h9.118a.707.707,0,0,0,.7-.706v-.1A.707.707,0,0,0,159.085,688.707Z" transform="translate(-149.253 -672.779)" fill="#fff"></path>
      <path d="M256.89,674.933a6.144,6.144,0,0,0-1.914-.257,2.72,2.72,0,0,0-1.012.2c-1.291.557-1.547,1.633-1.547,3.589v.65h-1.6a.476.476,0,0,0-.474.475v.064a.476.476,0,0,0,.474.475h1.587v.844h.012v8.659a.658.658,0,0,0,.253.627.512.512,0,0,0,.268.185,1.576,1.576,0,0,0,.408.042.833.833,0,0,0,.52-.214.767.767,0,0,0,.268-.64v-6.117h0v-3.385h1.738a.476.476,0,0,0,.474-.475v-.064a.476.476,0,0,0-.474-.475H254.13v-.28h.006a7.143,7.143,0,0,1,.221-2.108,1.061,1.061,0,0,1,1.056-.656,3.71,3.71,0,0,1,.689.057.694.694,0,0,0,.239.071,3.6,3.6,0,0,0,.365.015.438.438,0,0,0,.38-.214,1.193,1.193,0,0,0,.217-.519A.557.557,0,0,0,256.89,674.933Z" transform="translate(-236.103 -672.776)" fill="#fff"></path>
      <path d="M448.233,707.811a.705.705,0,0,0,.522-1.094c-.238-.447-.959-2.17-4.255-2.17s-4.188,1.818-4.188,3.188.864,2.436,4.644,3.1,3.011,2.389,2.944,2.608-.465,1.532-3.163,1.532-3.172-1.789-3.286-2.017a.763.763,0,0,0-.807-.514c-.5.048-.75.5-.446,1.218s1.178,2.484,4.549,2.484,4.72-1.78,4.72-3.454-1.292-2.731-3.989-3.2-3.771-1.047-3.771-2.084,1.073-1.77,2.963-1.77a2.963,2.963,0,0,1,2.7,1.227C447.511,707.078,447.644,707.9,448.233,707.811Z" transform="translate(-399.098 -698.43)" fill="#fff"></path>
      <path d="M674.8,704.276a.74.74,0,0,1,.8.8c0,.247-.009,1.028-.009,1.028a4.574,4.574,0,0,1,4.1-1.8c2.944.1,3.8,2.017,3.8,4.254v6.414c0,.476-.228.9-.655.9a.741.741,0,0,1-.8-.619c0-.333.01-5.738.01-6.738s-.029-2.836-2.716-3.055a3.561,3.561,0,0,0-3.7,3.73c0,1.8-.076,5.729-.076,6.1a.693.693,0,0,1-.7.619c-.314,0-.7-.086-.7-.666V704.961A.645.645,0,0,1,674.8,704.276Z" transform="translate(-600.203 -698.197)" fill="#fff"></path>
      <path d="M556.356,673.129v1.737a6.563,6.563,0,1,1-4.662.107v-1.76a8.221,8.221,0,1,0,4.662-.084Z" transform="translate(-490.065 -671.447)" fill="#fff"></path>
      <path d="M597.411,661.212v9.18a.827.827,0,1,0,1.654,0v-9.18Z" transform="translate(-534.279 -661.212)" fill="#fff"></path>
    </g>
    <g transform="translate(96.247)">
      <rect width="0.423" height="39" transform="translate(0)" fill="#fff"></rect>
    </g>
  </svg>